<svg xmlns="http://www.w3.org/2000/svg" xmlns:xlink="http://www.w3.org/1999/xlink" id="Layer_1" x="0px" y="0px" viewBox="0 0 360 100" style="enable-background:new 0 0 360 100;" xml:space="preserve"> <style type="text/css"> .st0{fill:#391955;} .st1{fill:#601F5F;} .st2{fill:url(#SVGID_1_);} .st3{fill:#FFFFFF;} </style> <g> <rect x="115.94" y="2.4" class="st0" width="1.97" height="95.2"></rect> <path class="st0" d="M229.41,44.22c0,3.62-1.69,7.11-5.9,9.05c5.32,1.68,7.27,7.51,7.27,10.46c0,10.46-7.59,13.81-17,13.81 c-7.2,0-14.34,0-21.54,0V30.61c7.14,0,14.34,0,21.54,0C222.73,30.61,229.41,34.77,229.41,44.22z M200.67,49.45h13.11 c5.38,0,7.14-2.35,7.14-5.03c0-2.15-1.69-5.77-7.14-5.77h-13.11V49.45z M200.67,69.29h13.11c3.5,0,8.5-1.21,8.5-5.63 c0-4.22-5-6.44-8.5-6.44h-13.11V69.29z"></path> <path class="st0" d="M285,71.64c-4.67,4.76-10.71,6.97-17.26,6.97c-16.87,0-24.01-12-24.07-24.2 c-0.07-12.27,7.66-24.74,24.07-24.74c6.16,0,12,2.41,16.67,7.17l-5.71,5.7c-2.98-3.02-7.01-4.42-10.96-4.42 c-10.96,0-15.7,8.45-15.64,16.29c0.06,7.78,4.41,15.89,15.64,15.89c3.96,0,8.43-1.68,11.42-4.76L285,71.64z"></path> <polygon class="st0" points="159.88,30.61 150.54,30.61 130.17,77.54 139.45,77.54 141.57,72.71 149.44,54.14 155.21,40.47 163.65,60.44 153.34,60.44 149.81,68.69 167.08,68.69 170.91,77.54 180.26,77.54 "></polygon> <g> <path class="st1" d="M143.78,97.6V85.97h2.11V97.6H143.78z"></path> <path class="st1" d="M158.82,87.96h-3.57v-1.99c3.25,0,6,0,9.26,0v1.99h-3.57v9.63h-2.12V87.96z"></path> <path class="st1" d="M201.38,94.18h-3.18v3.42h-2.12V85.97c1.77,0,3.54-0.02,5.31-0.02C206.87,85.95,206.89,94.18,201.38,94.18z M198.19,92.17h3.18c2.72,0,2.7-4.12,0-4.12h-3.18V92.17z"></path> <path class="st1" d="M245.07,97.6h-2.52l-3.28-3.89h-2.04v3.89h-2.12V85.95c1.78,0,3.57,0.02,5.35,0.02 c2.65,0.02,4.05,1.84,4.05,3.85c0,1.59-0.71,3.21-2.85,3.65l3.41,3.97V97.6z M237.22,88.01v3.72h3.23c1.35,0,1.93-0.93,1.93-1.86 s-0.59-1.86-1.93-1.86H237.22z"></path> <path class="st1" d="M263.92,86.04l-5,5.56l5.42,5.86v0.13h-2.62L257,92.45v5.15h-2.12V85.97H257v4.92l4.28-4.92h2.64V86.04z"></path> <polygon class="st1" points="220.14,85.89 217.82,85.89 212.75,97.56 215.06,97.56 215.59,96.36 217.55,91.74 218.98,88.34 221.08,93.31 218.52,93.31 217.64,95.36 221.93,95.36 222.89,97.56 225.21,97.56 "></polygon> </g> <g> <linearGradient id="SVGID_1_" gradientUnits="userSpaceOnUse" x1="1" y1="49.8983" x2="110.3986" y2="49.8983"> <stop offset="0" style="stop-color:#E71E63;stop-opacity:0.75"></stop> <stop offset="0.1636" style="stop-color:#B51D5F;stop-opacity:0.8046"></stop> <stop offset="0.3593" style="stop-color:#801B5B;stop-opacity:0.87"></stop> <stop offset="0.5292" style="stop-color:#591A58;stop-opacity:0.9267"></stop> <stop offset="0.6646" style="stop-color:#421956;stop-opacity:0.9719"></stop> <stop offset="0.7486" style="stop-color:#391955"></stop> </linearGradient> <path class="st2" d="M34.53,14L5.19,58.66C-5.63,75.13,5.78,97.4,25.04,97.4h30.59h0.1h30.62c19.26,0,30.67-22.25,19.87-38.72 L76.91,14.01C66.76-1.46,44.7-1.47,34.53,14z"></path> <g> <path class="st3" d="M87.72,81.77c-0.54,0.05-3.84,0.31-6.39-2.1c-1.43-1.35-2.03-3.01-2.25-3.68c-0.44-1.33-0.37-2.12-0.53-3.58 c0,0-0.32-2.96-1.4-5.8c-1.67-4.38-4.95-6.89-5.95-7.61c-0.92-0.66-2.95-2.08-5.96-2.66c-1.05-0.2-4.62-0.83-8.32,0.97 c-0.64,0.31-1.15,0.63-1.49,0.86c0-5.94,0-8.59,0-14.53c-2.22,1.23-4.05,2.33-6.27,3.57c0,3-0.01,6.01-0.02,9.03 c-0.01,3.25-0.03,6.5-0.06,9.73c0.51,0.62,1.02,1.26,1.53,1.93c0.57,0.74,1.1,1.46,1.61,2.18c0.66-1.12,1.89-2.89,3.94-4.42 c1.2-0.9,3.01-2.24,5.66-2.49c2.01-0.19,4.12,0.23,5.84,1.34c1.9,1.22,2.98,3.23,3.64,5.38c0.19,0.62,0.35,1.26,0.48,1.9 c0.41,2.01,0.24,4.08,0.81,6.07c0.04,0.14,0.09,0.29,0.13,0.43c0.99,3.04,2.84,4.95,3.37,5.5c4.49,4.59,10.65,4.21,10.65,4.21 c4.94-0.29,8.12-3.29,8.96-4.13c-0.88-1.55-1.77-3.09-2.65-4.64C92.46,79.78,90.61,81.5,87.72,81.77z"></path> <polygon class="st3" points="55.43,34.75 43.84,41 40.44,48.85 55.43,40.81 70.98,48.18 67.75,40.72 "></polygon> <path class="st3" d="M25.13,51.09c-0.69,0.29-1.66,0.75-2.71,1.46l0,0c-3.55,2.42-5.17,5.75-5.79,7.06c0,0-2.76,5.88-1.28,14.93 c0.11,0.66,0.26,1.29,0.33,1.57c0.01,0.03,0.01,0.06,0.02,0.09c0.01,0.04,0.02,0.06,0.02,0.06c0.01,0.04,0.02,0.07,0.03,0.11 c0.11,0.43,0.25,0.86,0.4,1.29c0,0,0,0,0,0c0.04,0.11,0.08,0.23,0.12,0.34c0,0,0,0,0,0.01c0,0,0,0,0,0 c0.41,1.1,0.94,2.15,1.59,3.14c0.47,0.72,3.88,5.71,10.11,6.72c4.55,0.74,8.17-1.03,9.07-1.49c1.85-0.94,3.39-2.23,4.79-3.4 c1.58-1.33,2.81-2.57,3.66-3.51c-1.34-1.66-2.68-3.32-4.03-4.98c-0.81,0.88-2.04,2.1-3.73,3.29c-2.75,1.95-4.76,3.38-7.32,3.24 c-4.13-0.23-7.79-4.47-8.24-8.39c-0.03-0.3-0.13-1.34,0.14-2.65c0.72-3.45,3.3-5.24,3.65-5.47c0.76-0.51,2.27-1.33,4.24-1.36 c0.22,0,1.24-0.07,2.62,0.42c3.28,1.17,5.95,3.84,8.12,6.54c0.37,0.46,0.73,0.94,1.09,1.42c2.67,3.64,12.15,16.74,21.46,16.45 c2.99-0.09,5.63-1.36,5.63-1.36c1.85-0.89,3.15-2.01,3.93-2.78c-0.42-0.57-0.88-1.26-1.31-2.07c-0.4-0.75-0.71-1.46-0.95-2.09 c-0.85,0.69-2.62,1.91-5.07,2.16c-1.21,0.12-3.19,0.09-6.07-1.49c-4.15-2.28-6.42-5.61-8.09-7.68 c-3.24-4.02-9.93-12.43-13.83-14.6c-1.03-0.58-6.67-3.18-12.73-0.94l7.6-4.08l3.49-7.88L25.13,51.09z"></path> <path class="st3" d="M88.03,56.25c-1.39-0.16-2.47-0.01-3.08-0.01c0,0-1.61,0.16-3.24,0.7c-0.05,0.02-0.09,0.03-0.11,0.04 c-0.46,0.15-0.94,0.34-1.44,0.57c-1.95,0.89-3.35,2.03-4.23,2.87c0.52,0.63,1.08,1.39,1.62,2.27c0.72,1.17,1.23,2.28,1.61,3.24 c0.3-0.32,0.69-0.71,1.18-1.1c0,0,0.8-0.64,1.77-1.14c3.8-1.96,6.72-1.31,6.72-1.31c0.47,0.11,1,0.28,1.56,0.53 c1.22,0.56,2.1,1.3,2.66,1.88c0.88-1.6,3.07-5.5,3.29-5.85c-1.07-0.59-2.42-1.21-4.01-1.73C90.71,56.69,89.25,56.4,88.03,56.25z"></path> </g> </g> </g> </svg>